<?xml version="1.0" encoding="UTF-8" standalone="no"?>
<!-- Created with Inkscape (http://www.inkscape.org/) -->

<svg
   version="1.1"
   id="svg9"
   width="288"
   height="212"
   viewBox="0 0 288 212"
   xmlns="http://www.w3.org/2000/svg"
   xmlns:svg="http://www.w3.org/2000/svg">
  <defs
     id="defs13">
    <clipPath
       clipPathUnits="userSpaceOnUse"
       id="clipPath15832">
      <path
         id="path15834"
         style="fill:#ff0000;fill-opacity:1;fill-rule:nonzero;stroke:none"
         d="m 308.94531,-134.95508 v 40.406252 c 1.04116,0.0015 -0.0879,0.01257 3.01953,0.0059 8.90442,-0.02038 10.56886,-0.08878 19.79493,-0.251953 17.07025,-0.411226 34.13657,-0.99386 51.20507,-1.46875 8.44526,-0.237698 16.89207,-0.391482 25.33985,-0.492187 5.18376,-0.05615 10.36667,-0.04183 15.54883,-0.195313 3.7668,-0.135326 7.53607,-0.231905 11.30468,-0.296875 1.68152,-0.03379 3.36201,-0.05652 5.04297,-0.05664 1.68096,-1.12e-4 3.36196,0.02224 5.04297,0.07617 3.46983,0.13239 6.93306,0.388526 10.40234,0.53711 3.44147,0.13286 6.88454,0.192645 10.32813,0.234375 3.00642,0.03197 6.01298,0.04318 9.01953,0.05078 2.76196,-0.05069 5.51966,0.110214 8.27734,0.232422 1.70962,0.02206 3.42892,0.239613 5.13477,0.05469 2.21816,-0.240492 3.95417,0.115877 5.24023,0.791016 v -39.626957 z m 139.63086,57.095705 -0.16601,0.0039 c 0.0319,1.8e-5 0.0638,-1.7e-5 0.0957,0 z m -139.63086,9.623047 v 0.402344 c 0.72183,-0.116434 1.45329,-0.239053 2.15821,-0.34961 0.0957,-0.01501 0.15946,-0.02238 0.2539,-0.03711 -0.80404,-0.0055 -1.60806,-0.01041 -2.41211,-0.01563 z m 182.51758,15.458984 c 0.72763,0.03961 1.45606,0.06477 2.18359,0.103516 v -0.08789 c -0.72788,-0.0074 -1.4557,-0.0093 -2.18359,-0.01563 z m -0.77148,34.767578 c -0.10876,0.147533 -0.2074,0.304504 -0.33985,0.431641 -1.78113,1.709631 -3.5687,2.203139 -5.91406,2.357422 -2.86469,0.158781 -5.73142,0.288242 -8.60156,0.232422 -3.23593,0.0048 -6.47128,0.01045 -9.70703,0.03125 -3.32687,0.02378 -6.65461,0.058 -9.98047,0.142578 -3.70124,0.09156 -7.40275,0.247838 -11.10547,0.173828 -4.18533,-0.07673 -8.36972,-0.192006 -12.55469,-0.285156 -5.38358,-0.07297 -10.76858,0.02833 -16.15234,0.04883 -6.86856,0.0537 -13.74044,0.144915 -20.60742,-0.05078 -6.36864,-0.182634 -12.73479,-0.484363 -19.10743,-0.476563 -7.73929,0.04495 -15.48005,0.103357 -23.21875,0.222656 -10.08154,0.135785 -20.16516,0.301503 -30.24609,0.02539 -4.73065,-0.167937 -9.50469,-0.264219 -14.21094,-0.851562 v 41.474609 h 184.70117 v -43.103516 c -0.98476,-0.125449 -1.96936,-0.254038 -2.95507,-0.373047 z" />
    </clipPath>
  </defs>
  <g
     id="layer1">
    <ellipse
       style="fill:#e00025;fill-opacity:1"
       id="path456"
       cx="148.52231"
       cy="102.58512"
       rx="92.35041"
       ry="80.211571" />
    <path
       id="path456-2"
       style="fill:#032ea1;fill-opacity:1;stroke-width:1.00008;stroke-dasharray:none"
       d="m 401.29492,-134.95508 a 92.35041,80.211571 0 0 0 -78.3418,37.882814 c 12.53689,0.112041 25.0753,0.03056 37.61133,-0.158203 13.17619,-0.265224 26.34613,-0.779746 39.51953,-1.142578 12.58659,-0.329015 25.17756,-0.428569 37.76758,-0.511719 10.59864,-0.09117 21.196,-0.256157 31.78516,-0.722656 2.62658,-0.137788 5.25408,-0.258751 7.88086,-0.386719 a 92.35041,80.211571 0 0 0 -76.22266,-34.960939 z m 79.59766,39.562502 c -3.68235,0.172679 -7.36527,0.347974 -11.04688,0.541016 -10.64846,0.468435 -21.3049,0.635602 -31.96289,0.726562 -12.55682,0.08292 -25.11458,0.181774 -37.66797,0.509766 -13.19321,0.363303 -26.38211,0.87963 -39.57812,1.144531 -13.54925,0.203808 -27.10221,0.27601 -40.65234,0.121094 2.81094,0.203952 5.62237,0.424318 8.42578,0.634765 15.8013,1.254784 31.57999,2.769088 47.36523,4.207032 1.86746,0.180292 3.7357,0.344913 5.60156,0.541015 2.91708,0.306583 5.99544,0.668623 8.89844,1.146485 3.91637,0.644667 7.79475,1.533816 11.69727,2.257812 4.77358,0.757752 4.386,0.686732 7.08398,1.072266 22.55985,-0.650491 45.12179,-1.225733 67.6875,-1.636719 3.36433,-0.06326 6.7303,-0.138036 10.0957,-0.199219 a 92.35041,80.211571 0 0 0 -5.94726,-11.066406 z m -163.35938,7.640625 a 92.35041,80.211571 0 0 0 -3.92578,8.962891 c 0.5332,0.09342 1.05917,0.223021 1.58203,0.373046 0.60617,0.03388 1.21243,0.06588 1.81836,0.101563 -3.0365,-1.018241 -2.61564,-4.335934 0.84571,-4.488281 0.25955,-0.01143 0.53675,-0.0052 0.83007,0.02148 8.56447,0.778319 17.13087,1.504289 25.70899,2.132812 1.47094,0.100401 2.94293,0.18381 4.41406,0.28125 12.05976,-0.500918 24.12043,-0.985113 36.18359,-1.396484 -1.3677,-0.170046 -2.73782,-0.324771 -4.07031,-0.464844 -1.85732,-0.195237 -3.71726,-0.359565 -5.57617,-0.539062 -15.76013,-1.435661 -31.51482,-2.947976 -47.29102,-4.201172 -3.50062,-0.262955 -7.00884,-0.552256 -10.51953,-0.783203 z m 171.25,8.162109 c -3.9833,0.06366 -7.96695,0.147777 -11.94922,0.222656 -21.53371,0.392218 -43.06376,0.937401 -64.59179,1.548829 -0.62326,0.265692 -1.41049,0.405804 -2.42383,0.259765 -0.69472,-0.100119 -0.58471,-0.0925 -1.05664,-0.160156 -3.01365,0.08706 -6.02745,0.165063 -9.04102,0.255859 10.64723,0.53829 21.29514,1.072701 31.94336,1.582032 19.67308,0.915048 39.35483,1.65738 59.04297,2.152343 a 92.35041,80.211571 0 0 0 -1.92383,-5.861328 z m -176.72656,5.763672 a 92.35041,80.211571 0 0 0 -1.90039,7.201172 c 4.0225,-0.505396 8.05101,-0.971881 12.07422,-1.464844 0.73758,-0.08871 1.47664,-0.164556 2.21484,-0.248047 -2.91356,-1.820347 -5.77727,-3.728736 -8.96484,-5.052734 -0.34186,-0.103036 -0.6161,-0.192246 -0.89649,-0.283203 -0.84275,-0.04676 -1.68439,-0.109428 -2.52734,-0.152344 z m 66.43164,0.0078 c 2.69775,0.216323 5.39606,0.425773 8.09375,0.642578 2.18126,0.1753 3.25281,1.291998 3.32031,2.40039 12.85584,-0.190912 25.7119,-0.354177 38.56836,-0.496093 -16.66317,-0.797449 -33.32581,-1.621653 -49.98242,-2.546875 z m -52.54101,0.826171 c 1.32298,0.836516 2.65485,1.657258 4.02539,2.40625 1.27153,-0.0054 3.58513,0.805469 2.97851,-0.328124 3.46484,-0.359726 6.93459,-0.655163 10.41211,-0.859376 -5.66863,-0.415676 -11.33832,-0.818778 -17.00976,-1.195312 -0.13533,-0.0086 -0.27092,-0.0148 -0.40625,-0.02344 z m 21.71484,1.541016 c -0.44208,0.09649 -0.75668,0.242548 -0.85938,0.46875 0.61843,-0.111335 1.23209,-0.253004 1.84571,-0.394531 -0.32879,-0.02466 -0.65754,-0.04966 -0.98633,-0.07422 z m 3.49219,0.261719 c 0.41143,0.263596 0.767,0.584623 0.97656,1.039062 0.004,0.0085 0.002,0.01691 0.006,0.02539 3.48158,-0.06915 6.96364,-0.115802 10.44531,-0.179688 -3.80899,-0.298391 -7.618,-0.59628 -11.42773,-0.884765 z m 95.02929,0.675781 c 0.86964,0.901798 0.7733,2.210164 -0.33398,3.025391 0.015,-2.16e-4 0.03,2.16e-4 0.0449,0 15.41048,-0.229143 30.82737,-0.354504 46.23047,-0.898438 a 92.35041,80.211571 0 0 0 -0.14453,-0.546875 c -15.27017,-0.374314 -30.53552,-0.93626 -45.79688,-1.580078 z m 46.77735,6.857422 c -15.65692,0.576572 -31.33113,0.694813 -46.9961,0.927734 -31.06916,0.448954 -62.14116,0.692503 -93.21289,0.892578 2.88755,1.031909 5.77845,2.053092 8.67383,3.0625 6.10551,2.066044 12.22213,4.101457 18.33203,6.154297 2.55405,0.858125 5.36183,1.841305 7.98242,2.539063 1.07499,0.286225 2.16962,0.497399 3.25391,0.746094 4.37518,0.865788 8.7669,0.292817 13.13477,-0.246094 2.87594,-0.354839 4.18729,1.297978 3.69531,2.755859 3.63512,0.102721 7.22351,0.193106 12.46289,0.332031 4.71081,0.12491 4.58581,4.882784 -0.125,4.757813 -11.68601,-0.310012 -16.02911,-0.386449 -27.92383,-0.863281 -16.24682,-0.6513 -32.48211,-1.564546 -48.7168,-2.458985 -9.1178,-0.492973 -18.23875,-0.9455 -27.3496,-1.55664 -4.40805,-0.295686 -4.43853,-4.492522 -0.55079,-4.75586 0.25919,-0.01756 0.53621,-0.01776 0.83008,0.002 9.10334,0.610695 18.21588,1.064075 27.32617,1.556641 11.62345,0.640377 23.24865,1.28724 34.87696,1.84375 -0.13635,-0.04597 -0.28279,-0.09521 -0.41797,-0.140625 -6.12511,-2.05795 -12.25648,-4.098237 -18.37695,-6.169922 -6.89588,-2.404441 -13.77912,-4.8574 -20.60352,-7.460937 -0.13542,8.12e-4 -0.27084,0.0011 -0.40625,0.002 -4.84468,0.02591 -9.69048,0.05221 -14.53516,0.07813 -1.76452,0.0094 -2.87277,-0.651802 -3.32031,-1.484375 -3.83796,0.464689 -7.67874,0.914822 -11.51367,1.40625 a 92.35041,80.211571 0 0 0 -0.53516,6.992187 92.35041,80.211571 0 0 0 7.48047,31.304688 c 0.0961,-0.0037 0.19302,-0.01 0.28906,-0.01367 4.5698,-0.175559 7.78758,-0.222073 12.44727,-0.320313 4.62271,-0.07522 9.24664,-0.09886 13.86914,-0.08398 13.86742,0.04464 27.73271,0.439234 41.59375,0.845703 15.24504,0.445392 30.48503,1.034623 45.73047,1.470703 11.23987,0.318145 22.48144,0.58807 33.72461,0.753907 6.90539,0.09251 13.81118,0.120676 20.7168,0.164062 a 92.35041,80.211571 0 0 0 8.8496,-34.121094 92.35041,80.211571 0 0 0 -0.68554,-8.912109 z m -149.89063,44.558594 c -4.60244,-0.01508 -9.20586,0.0094 -13.80859,0.08398 -3.4332,0.07226 -6.8782,0.110556 -10.32031,0.214844 a 92.35041,80.211571 0 0 0 82.35351,44.265625 92.35041,80.211571 0 0 0 80.52344,-41.351563 c -5.9361,-0.04185 -11.87263,-0.06303 -17.80859,-0.142578 -11.26514,-0.166221 -22.52724,-0.435109 -33.78907,-0.753906 -15.24648,-0.436179 -30.49015,-1.027073 -45.73632,-1.472656 -13.80112,-0.404793 -27.60658,-0.798524 -41.41407,-0.84375 z"
       clip-path="url(#clipPath15832)"
       transform="matrix(0.99999999,0,0,1.0118696,-252.77356,157.74071)" />
  </g>
  <g
     id="g15">
    <g
       aria-label="RH"
       id="text287"
       style="font-size:96px;font-family:'Old English Text MT';-inkscape-font-specification:'Old English Text MT';white-space:pre;inline-size:203.275;display:inline;fill:#ffffff">
      <path
         d="m 121.78125,63.156967 16.17187,20.578125 -15.04687,10.171875 q 6.42187,3.84375 10.26562,9.140623 3.89063,5.25 6.04688,13.59375 0.98437,4.03125 2.01562,5.90625 0.70313,1.21875 2.625,2.90625 l 4.6875,-3.98437 1.59375,1.6875 -11.34375,9.65625 q -3.42187,-2.15625 -4.92187,-4.59375 -1.07813,-1.64063 -3.9375,-11.10938 -1.54688,-5.01562 -3.9375,-8.57812 -2.39062,-3.5625 -5.0625,-5.34375 -2.67187,-1.82813 -7.17187,-3.234378 l -3.1875,2.062498 v 19.45313 q 4.26562,1.40625 9,3.98437 l 4.875,-4.3125 1.5,1.64063 -12.1875,10.03125 q -6.65625,-3.375 -11.57813,-4.73438 -4.875,-1.35937 -9.84375,-1.35937 -6.234375,0 -12,2.0625 -3.046875,1.125 -6.796875,4.03125 l -1.265625,-1.125 q 4.640625,-5.95313 9.328125,-8.76563 4.734375,-2.8125 11.578125,-3.79687 v -2.10938 q 0,-4.54687 -1.171875,-7.40625 -1.171875,-2.90625 -4.265625,-6.04687 -3.09375,-3.1875 -6.515625,-5.203128 -2.203125,-1.265625 -6.1875,-2.53125 v -1.921875 q 3.796875,-1.40625 9.328125,-5.15625 l 8.8125,-5.90625 q 0,-6.046875 -0.84375,-8.625 -0.84375,-2.625 -3.28125,-4.359375 -2.4375,-1.734375 -5.4375,-1.734375 -1.828125,0 -3.328125,0.5625 -1.5,0.5625 -3.703125,2.109375 l -1.546875,-1.125 q 3.65625,-3.75 6.5625,-5.0625 2.953125,-1.359375 7.265625,-1.359375 4.828125,0 8.015625,1.921875 3.234375,1.921875 4.828125,5.25 0.9375,2.015625 1.07813,5.8125 z m -6.23437,6.984375 -4.96875,3.328125 v 25.921875 l 18.32812,-12.234375 z m -7.125,4.828125 -5.625,3.9375 v 40.593753 q 2.8125,0.42187 5.625,1.26562 z m -15.23438,10.5 -10.40625,7.03125 q 2.953125,1.40625 4.875,2.8125 1.96875,1.40625 5.53125,4.687503 z"
         id="path348" />
      <path
         d="m 209.0625,61.797592 0.89062,1.96875 q -6.1875,2.15625 -9.14062,4.359375 -2.95313,2.203125 -3.84375,4.640625 -0.89063,2.4375 -0.89063,7.921875 v 9.703125 l 18.28125,-14.671875 q 5.76563,3.65625 8.71875,6.890625 2.95313,3.234375 3.89063,6.46875 0.98437,3.234375 0.98437,10.59375 v 6.984378 q 0,5.48437 -0.70312,8.15625 -0.65625,2.67187 -2.71875,5.29687 -3,3.84375 -10.3125,9.60938 -5.25,4.125 -6.46875,5.71875 -1.21875,1.59375 -1.21875,2.71875 0,0.60937 0.46875,1.07812 0.46875,0.46875 1.3125,0.46875 0.51562,0 1.40625,-0.23437 0.9375,-0.1875 1.45312,-0.1875 1.21875,0 1.82813,0.60937 0.60937,0.60938 0.60937,1.6875 0,1.3125 -1.03125,2.15625 -1.40625,1.17188 -3.42187,1.17188 -2.15625,0 -3.70313,-1.73438 -1.54687,-1.6875 -1.54687,-4.125 0,-1.6875 1.125,-3.98437 1.17187,-2.25 5.71875,-7.82813 4.54687,-5.625 5.85937,-8.48437 1.35938,-2.90625 1.875,-7.03125 -5.8125,-2.71875 -10.54687,-2.71875 -6.04688,0 -11.95313,2.76562 -5.90625,2.76563 -13.64062,9.79688 3.23437,-0.14063 4.82812,-0.14063 3.70313,0 9.9375,0.60938 1.73438,0.1875 3.04688,0.1875 2.29687,0 4.07812,-1.125 1.82813,-1.125 3.70313,-3.84375 l 2.01562,1.125 L 199.5,133.09447 q -6.42188,-2.71875 -11.20313,-3.84375 -4.73437,-1.125 -9.60937,-1.125 -5.48438,0 -9.75,1.35937 -4.26563,1.3125 -6,3.375 -1.3125,1.59375 -1.3125,2.85938 0,0.89062 1.125,2.57812 0.79687,1.125 0.79687,2.15625 0,1.17188 -0.70312,1.92188 -0.70313,0.75 -1.59375,0.75 -1.125,0 -2.20313,-1.26563 -1.07812,-1.26562 -1.07812,-3.09375 0,-2.20312 1.17187,-4.35937 1.21875,-2.10938 5.29688,-6.23438 4.125,-4.17187 5.34375,-6.42187 1.21875,-2.25 1.21875,-4.40625 0,-1.64063 -0.89063,-2.57813 -0.89062,-0.9375 -2.39062,-0.9375 -2.8125,0 -4.54688,4.03125 h -2.0625 q 0.42188,-3.70312 1.54688,-5.625 1.125,-1.92187 3.42187,-3.28125 1.78125,-1.03125 4.78125,-1.26562 -0.23437,-5.67188 -2.29687,-7.828128 -2.01563,-2.203125 -5.8125,-2.203125 -2.34375,0 -3.70313,0.890625 -1.35937,0.84375 -2.71875,3.281248 l -1.73437,-0.51562 q 0.5625,-3.046878 1.54687,-4.593753 1.54688,-2.296875 4.125,-3.5625 2.57813,-1.3125 5.48438,-1.3125 1.78125,0 4.125,0.234375 -0.14063,-2.203125 -0.14063,-3.703125 0,-5.625 3.09375,-10.734375 2.25,-3.65625 7.54688,-7.640625 -5.25,1.6875 -7.07813,1.6875 -1.59375,0 -8.4375,-1.21875 -2.67187,-0.515625 -3.5625,-0.515625 -1.64062,0 -3,1.40625 -1.3125,1.359375 -1.96875,5.015625 h -2.39062 q 0.75,-4.3125 2.0625,-6.609375 2.0625,-3.421875 5.15625,-5.25 3.09375,-1.875 6.23437,-1.875 1.875,0 6.5625,1.359375 4.6875,1.3125 7.45313,1.3125 5.625,0 12.5625,-3.515625 l 0.98437,1.96875 q -9.51562,3.703125 -13.07812,9.1875 -2.34375,3.609375 -2.34375,11.8125 v 21.890628 q 0,5.8125 -1.21875,9.04687 -1.17188,3.1875 -5.29688,8.29688 5.71875,-3.23438 8.76563,-6.51563 3.04687,-3.32812 3.84375,-6.1875 0.84375,-2.90625 0.84375,-9.98437 V 85.375717 q 0,-7.453125 1.6875,-11.0625 1.73437,-3.609375 5.95312,-6.375 4.21875,-2.765625 14.95313,-6.140625 z m -12.98438,31.3125 v 2.109375 q 6.14063,2.4375 11.39063,2.4375 3.14062,0 5.48437,-0.609375 2.39063,-0.609375 5.53125,-2.203125 -0.84375,-3.46875 -3.04687,-6.046875 -2.20313,-2.625 -7.03125,-5.34375 z m 0,16.218748 q 5.76563,-2.48437 10.96875,-2.48437 2.85938,0 5.29688,0.51562 2.48437,0.51563 6.14062,1.96875 V 97.281967 q -3.51562,1.5 -5.90625,2.0625 -2.39062,0.515625 -5.34375,0.515625 -5.34375,0 -11.15625,-2.296875 z"
         id="path350" />
    </g>
    <path
       style="fill:#ffffff;fill-opacity:1"
       d="M 73.309091,54.743802 222.30744,52.839669"
       id="path8898" />
    <path
       style="fill:#ffb380;fill-opacity:1"
       d="m 74.73719,54.743802 148.99835,0.476033"
       id="path8900" />
    <path
       style="fill:#ffb380;fill-opacity:1"
       d="M 135.19339,57.123967 188.98512,51.41157"
       id="path9949" />
  </g>
</svg>
